<svg xmlns="http://www.w3.org/2000/svg" width="348.5" height="184.55" fill="none"><path fill="#fff" d="M126.62 127.48c3.73 0 7.08-.39 10.75-1.17l-1.17-7.3c-3.23.56-6.91.89-9.58.89-4.12 0-5.18-1.89-5.18-5.13v-12.82c0-3.23 1.06-5.13 5.18-5.13 2.67 0 6.35.33 9.58.89l1.17-7.3c-3.68-.78-7.02-1.17-10.75-1.17-9.36 0-13.54 4.62-13.54 11.37v15.49c0 6.74 4.18 11.37 13.54 11.37zM151.09 127.48c3.79 0 7.75-.84 10.2-1.73l-1.17-6.02c-2.4.72-5.74 1.17-8.25 1.17-3.68 0-4.9-.84-4.9-3.96v-.78h14.6v-5.68c0-5.91-1.95-11.26-10.98-11.26-9.03 0-11.65 5.02-11.65 10.87v6.35c0 6.69 3.34 11.03 12.15 11.03zm-4.13-18.5c0-1.89.89-3.46 3.68-3.46s3.34 1.56 3.34 3.46v1.17h-7.02zM183.07 99.23c-3.12 0-7.47 1-10.81 2.62l-.84-2.06h-5.96v27.14h8.02v-17.94c1.73-.95 4.4-1.95 5.85-1.95 1.45 0 1.95.72 1.95 1.95v17.94h8.02v-19c0-5.24-1.62-8.69-6.24-8.69zM208.7 106.25l.45-6.46h-6.19v-7.63l-8.02 1.11v6.52h-3.68v6.46h3.68v14.27c0 5.01 3.01 6.97 8.19 6.97 1.84 0 4.01-.39 5.8-1l-.95-6.07c-1.17.39-2.45.5-3.34.5-1 0-1.67-.39-1.67-1.5v-13.15h5.74zM227.09 99.23c-2.17.45-5.63 2.06-7.3 3.18l-.56-2.62h-6.69v27.14h8.02v-16.55c1.73-1.23 4.79-2.62 7.19-3.57l-.67-7.58zM240.9 99.23c-9.03 0-11.65 5.02-11.65 10.87v6.35c0 6.69 3.34 11.03 12.15 11.03 3.79 0 7.75-.84 10.2-1.73l-1.17-6.02c-2.4.72-5.74 1.17-8.25 1.17-3.68 0-4.9-.84-4.9-3.96v-.78h14.6v-5.68c0-5.91-1.95-11.26-10.98-11.26zm3.4 10.92h-7.02v-1.17c0-1.89.89-3.46 3.68-3.46s3.34 1.56 3.34 3.46zM264.61 115.67h6.35c9.03 0 12.82-3.51 12.82-10.48v-4.85c0-6.97-3.34-10.53-12.37-10.53h-15.16v37.11h8.36v-11.26zm0-18.45h6.35c3.51 0 4.46 1.23 4.46 3.9v3.23c0 2.67-.78 4.07-4.46 4.07h-6.35zM310.14 116.5v-6.3c0-5.57-2.62-10.98-12.26-10.98s-12.26 5.41-12.26 10.98v6.3c0 5.57 2.62 10.98 12.26 10.98s12.26-5.41 12.26-10.98zm-8.03.23c0 2.56-1.34 4.01-4.24 4.01-2.9 0-4.24-1.45-4.24-4.01v-6.74c0-2.56 1.34-4.01 4.24-4.01 2.9 0 4.24 1.45 4.24 4.01zM321.5 110.37c1.73-1.23 4.79-2.62 7.19-3.57l-.67-7.58c-2.17.45-5.63 2.06-7.3 3.18l-.56-2.62h-6.69v27.14h8.02v-16.55zM334.03 120.52c0 5.01 3.01 6.97 8.19 6.97 1.84 0 4.01-.39 5.8-1l-.95-6.07c-1.17.39-2.45.5-3.34.5-1 0-1.67-.39-1.67-1.5v-13.15h5.74l.45-6.46h-6.19v-7.63l-8.02 1.11v6.52h-3.68v6.46h3.68v14.27zM149.03 168.45l-7.69-32.55h-6.68l-7.69 32.55-8.47-32.55h-4.69l9.76 37.12h6.74l7.69-33.16 7.69 33.16h6.74l9.75-37.12h-4.68zM174.27 145.32c-8.08 0-10.64 4.51-10.64 10.14v8.14c0 6.13 2.73 9.98 10.75 9.98 3.4 0 7.02-.61 9.59-1.56l-.61-3.73c-2.95.78-5.91 1.28-8.58 1.28-5.29 0-6.46-1.73-6.46-6.02v-2.28h16.16v-5.68c0-5.63-2.17-10.25-10.2-10.25zm5.69 12.04h-11.65v-2.23c0-3.79 1.56-5.91 5.96-5.91s5.68 2.12 5.68 5.91v2.23zM190.52 173.02h4.68v-38.9l-4.68.67zM202.22 173.02h4.68v-38.9l-4.68.67zM218.61 145.88h-4.68v27.14h4.68zM218.61 134.79h-4.68v6.74h4.68zM240.8 145.32c-3.23 0-7.91 1.45-10.92 2.9l-.45-2.34h-3.79v27.14h4.68v-20.51c2.9-1.5 7.08-2.73 9.08-2.73 1.73 0 2.62.72 2.62 2.51v20.73h4.68v-20.79c0-4.18-1.56-6.91-5.91-6.91zM262.86 145.32c-7.75 0-10.59 3.4-10.59 9.31v1.23c0 3.57 1.23 6.24 3.79 7.69-1.45 1.11-2.56 2.79-2.56 4.79 0 2.51 1.28 4.62 5.29 4.96 3.18.28 4.18.39 7.19.67 3.18.28 4.01.67 4.01 2.95 0 2.84-.67 3.79-7.58 3.79-2.73 0-6.24-.45-9.08-1.12l-.67 3.68c3.07.84 7.36 1.28 9.86 1.28 9.81 0 11.87-1.95 11.87-7.86 0-4.12-1.89-6.02-6.8-6.52-3.4-.33-4.85-.5-7.69-.78-1.23-.11-1.78-.5-1.78-1.56 0-1.17 1-2.12 1.95-2.9.83.11 1.78.17 2.79.17 7.08 0 10.64-3.4 10.64-9.25v-1.23c-.06-2.12-.5-4.01-1.5-5.41l3.23-.61v-2.73h-7.8c-1.28-.39-3.18-.56-4.57-.56zm6.18 9.36v1.17c0 3.57-1.73 5.41-6.19 5.41-4.46 0-6.19-1.28-6.19-5.41v-1.17c0-4.01 1.67-5.52 6.19-5.52 4.52 0 6.19 1.56 6.19 5.52zM291.39 169.62c-2.51 0-2.79-1-2.79-3.01v-16.83h7.3l.39-3.9h-7.69v-7.36l-4.68.67v6.69h-4.79v3.9h4.79v17.61c0 4.51 2.17 6.19 6.74 6.19 2.01 0 4.01-.39 5.68-1l-.61-3.62c-1.73.45-3.06.67-4.35.67zM311.33 145.32c-7.91 0-11.03 4.51-11.03 10.2v7.86c0 5.68 3.12 10.2 11.03 10.2 7.91 0 11.03-4.51 11.03-10.2v-7.86c0-5.68-3.12-10.2-11.03-10.2zm6.36 18.22c0 3.96-2.12 5.96-6.35 5.96-4.23 0-6.35-2.01-6.35-5.96v-8.19c0-3.96 2.12-5.96 6.35-5.96 4.23 0 6.35 2.01 6.35 5.96zM342.6 145.32c-3.23 0-7.91 1.45-10.92 2.9l-.45-2.34h-3.79v27.14h4.68v-20.51c2.9-1.5 7.08-2.73 9.08-2.73 1.73 0 2.62.72 2.62 2.51v20.73h4.68v-20.79c0-4.18-1.56-6.91-5.91-6.91z"/><path fill="#ffcd00" d="M38.05 89.83S5.73 115.49 0 165.07l25.27 14.59c10.25-45.38 43.38-59.41 43.38-59.41V89.83Z"/><path fill="#0077c8" d="M99.25 89.83s32.32-25.66 38.05-75.24L112.03 0c-10.25 45.38-43.38 59.41-43.38 59.41v30.42z"/></svg>